<?xml version="1.0" encoding="utf-8"?>
<svg viewBox="0 0 1000 1000" xmlns="http://www.w3.org/2000/svg">
  <path fill="currentColor" d="M 493.478 7 C 426.437 7.721 366.604 11.685 313.98 18.894 C 255.589 26.824 209.452 38.718 175.571 54.578 L 160.433 63.228 C 148.898 70.438 137.365 79.448 125.831 90.261 C 109.971 105.4 96.275 122.341 84.741 141.083 C 69.602 164.872 58.068 191.184 50.138 220.019 C 40.047 253.9 35 291.026 35 331.395 L 35 371.404 C 35 426.911 35.36 469.804 36.081 500.08 C 38.244 581.539 44.732 649.302 55.545 703.368 C 69.242 771.851 91.589 827.359 122.587 869.891 C 158.63 918.19 206.929 950.268 267.483 966.128 C 346.059 987.033 421.751 995.684 494.56 992.08 C 527.72 989.917 559.439 985.592 589.715 979.104 C 611.342 974.057 631.166 967.93 649.188 960.721 L 669.733 952.071 L 665.408 870.972 L 641.619 877.46 C 621.434 881.785 600.889 885.389 579.984 888.273 C 550.428 892.598 522.314 894.04 495.641 892.598 C 457.435 891.877 428.599 889.354 409.136 885.029 C 378.137 879.263 353.988 868.449 336.687 852.59 C 315.782 834.567 303.167 808.616 298.841 774.735 C 297.4 764.643 296.679 754.19 296.679 743.377 L 323.712 749.865 C 346.059 754.19 369.487 757.794 393.997 760.678 C 428.599 765.724 462.12 768.968 494.56 770.41 C 524.836 771.851 557.997 771.131 594.041 768.247 C 617.108 766.806 648.828 763.562 689.197 758.515 C 729.565 753.469 768.133 742.655 804.897 726.076 C 840.221 709.496 869.596 689.852 893.025 667.144 C 916.454 644.436 930.33 621.548 934.656 598.48 C 941.143 566.041 945.829 526.753 948.713 480.617 C 951.596 447.456 953.398 412.494 954.119 375.729 L 954.119 331.395 C 954.119 291.026 949.073 253.9 938.981 220.019 C 931.051 191.184 919.517 164.872 904.379 141.083 C 892.844 122.341 879.148 105.4 863.289 90.261 C 852.475 79.448 840.941 70.438 828.686 63.228 C 820.036 57.462 814.989 54.578 813.548 54.578 C 780.387 38.718 734.612 26.824 676.221 18.894 C 622.876 11.685 563.043 7.721 496.722 7 L 493.478 7 Z M 350.744 174.604 C 403.369 174.604 442.656 194.789 468.608 235.158 L 494.56 277.329 L 520.511 235.158 C 546.463 194.789 585.75 174.604 638.375 174.604 C 683.79 174.604 720.195 190.103 747.588 221.101 C 774.981 252.099 788.678 294.27 788.678 347.615 L 788.678 606.049 L 685.953 606.049 L 685.953 355.184 C 685.953 301.839 663.966 275.167 619.992 275.167 C 570.252 275.167 545.381 306.885 545.381 370.322 L 545.381 507.65 L 443.738 507.65 L 443.738 370.322 C 443.738 306.885 418.867 275.167 369.127 275.167 C 325.153 275.167 303.167 301.839 303.167 355.184 L 303.167 606.049 L 200.441 606.049 L 200.441 347.615 C 200.441 294.27 214.138 252.099 241.531 221.101 C 268.924 190.103 305.329 174.604 350.744 174.604 Z" style=""/>
</svg>